<?xml version="1.0" encoding="utf-8"?>
<!-- Generator: Adobe Illustrator 22.0.1, SVG Export Plug-In . SVG Version: 6.00 Build 0)  -->
<svg version="1.1" id="Ebene_1" xmlns="http://www.w3.org/2000/svg" xmlns:xlink="http://www.w3.org/1999/xlink" x="0px" y="0px"
	 viewBox="0 0 595.3 841.9" style="enable-background:new 0 0 595.3 841.9;" xml:space="preserve">
<style type="text/css">
	.st0{fill:none;stroke:#EE7596;stroke-width:8.1524;stroke-miterlimit:10;}
	.st1{fill:#94C1E3;}
	.st2{fill:none;stroke:#94C1E3;stroke-width:8.1524;stroke-miterlimit:10;}
</style>
<polygon class="st0" points="29.4,214.6 71.7,214.6 96.4,315.2 121,214.5 163.6,214.5 188.1,315.2 212.8,214.6 254.7,214.6 
	209.4,400.6 166.7,400.7 142.3,299.9 117.6,400.6 75.1,400.6 "/>
<g>
	<path class="st1" d="M387.1,219.2l0.1,26.5h-66.6h-8.5v8.5v31.6v8.5h8.5h46.9v26.5h-46.7h-8.5v8.5v31.6v8.5h8.5h66.4V396H285.3
		c0-16,0-52.2,0.1-88.4c0-24.2,0-48.5,0-66.6c0-9,0-16.6,0-21.9H387.1 M276.8,210.7C276.8,210.7,276.8,210.7,276.8,210.7
		C276.8,210.7,276.8,210.7,276.8,210.7L276.8,210.7z M395.6,210.7H276.8c0.2,0.2,0,193.9,0,193.9h118.9v-43.7h-74.9v-31.6H376v-43.5
		h-55.4v-31.6h75.1L395.6,210.7L395.6,210.7z"/>
</g>
<g>
	<path class="st2" d="M405.2,272.7h41.4c0,0,1.3-15.9,15.9-15.9c0,0,18.3-1,17.9,17.9c0,5.8-11.3,12.2-11.3,12.2
		s-27.4,16.2-33.3,28.5c0,0-4.6,6.6-4.9,13.3s0,14.4,0,14.4h41c0,0-0.7-6,1.9-9.7s13.2-7.2,26.8-18.1c0,0,21.7-15.9,21.5-42.6
		c-0.2-26.7-21.7-58.1-58.1-58.1S406.4,246.1,405.2,272.7z"/>
	<path class="st2" d="M430.6,358.6H472v42h-41.5C430.5,400.6,430.6,358.7,430.6,358.6z"/>
</g>
</svg>
