<?xml version="1.0" encoding="utf-8"?>
<!-- Generator: Adobe Illustrator 22.0.1, SVG Export Plug-In . SVG Version: 6.00 Build 0)  -->
<svg version="1.1" id="Ebene_1" xmlns="http://www.w3.org/2000/svg" xmlns:xlink="http://www.w3.org/1999/xlink" x="0px" y="0px"
	 viewBox="0 0 595.3 841.9" style="enable-background:new 0 0 595.3 841.9;" xml:space="preserve">
<style type="text/css">
	.st0{fill:#FFFFFF;}
</style>
<g>
	<polygon class="st0" points="29.4,214.6 72.5,214.6 97.7,317.2 122.7,214.5 166.3,214.5 191.2,317.2 216.4,214.6 259,214.6 
		212.9,404.2 169.4,404.3 144.4,301.5 119.3,404.2 76,404.2 	"/>
	<g>
		<path class="st0" d="M276.8,214.9h115.3l0.2,42.5h-72.9v30.9h53.8v42.5h-53.6v30.9h72.7v42.7H276.8
			C276.8,404.5,277,214.8,276.8,214.9z"/>
	</g>
	<g>
		<path class="st0" d="M413.2,270h43.6c0,0,1.4-16.7,16.7-16.7c0,0,19.2-1,18.8,18.8c0,6.1-11.9,12.8-11.9,12.8s-28.8,17-35,30
			c0,0-4.8,6.9-5.2,14c-0.4,7,0,15.1,0,15.1h43c0,0-0.7-6.3,2-10.2c2.8-3.9,13.8-7.5,28.2-19c0,0,22.8-16.7,22.6-44.8
			s-22.9-61.1-61.1-61.1S414.5,242,413.2,270z"/>
		<path class="st0" d="M439.9,360.3h43.5v44.1h-43.6C439.8,404.4,439.9,360.4,439.9,360.3z"/>
	</g>
</g>
</svg>
